<?xml version="1.0" encoding="utf-8"?>
<!-- Generator: Adobe Illustrator 28.0.0, SVG Export Plug-In . SVG Version: 6.00 Build 0)  -->
<svg version="1.1" id="Layer_1" xmlns="http://www.w3.org/2000/svg" xmlns:xlink="http://www.w3.org/1999/xlink" x="0px" y="0px"
	 viewBox="0 0 85 85" style="enable-background:new 0 0 85 85;" xml:space="preserve">
<style type="text/css">
	.st0{fill:url(#SVGID_1_);}
	.st1{fill:#FFFFFF;}
</style>
<linearGradient id="SVGID_1_" gradientUnits="userSpaceOnUse" x1="5.6515" y1="42.5" x2="79.7153" y2="42.5">
	<stop  offset="0" style="stop-color:#E4B8BF"/>
	<stop  offset="1" style="stop-color:#CEC4EF"/>
</linearGradient>
<path class="st0" d="M79.7,15.4c-0.8-0.2-1.6-0.6-2.5-0.8c-4.8-1-9.7-1.1-14.6-1.1c-2.2,0-2.3,0.1-2.9-1.9c-0.6-1.7-1.5-2.9-3.5-2.9
	c-2.4,0-4.7-0.1-7.1-0.1c-0.7,0-1.4,0-2.2,0C47.3,5.7,48.6,3,48,0c-6,1.2-14.4,5.8-16.6,9c0.5-0.2,1-0.3,1.5-0.5
	c0.6-0.2,1.1-0.3,1.7-0.4c0.5-0.1,1-0.2,1.4-0.3C28.3,12,23.4,18.5,20,26.7c2.9-2.5,4.2-3.2,6-3.1c-7.2,7.3-9.9,16.2-9.3,26.3v16.9
	c-0.6,0-0.9,0.1-1.3,0.1c-2.8,0-5.7,0-8.5,0c-1,0-1.3,0.2-1.3,1.3c0,5.2,0,10.5,0,15.7V85h49.6V66.8H43.6V49.8
	c-0.3-7.3,2.7-12.5,9-16.1c-5.3,0.7-9.7,3-13,7.3c0.7-2,2-3.7,3.5-5.1c4.2-3.9,9.2-6,14.7-7c3.4-0.7,7-0.8,10.5-1.4
	c4-0.6,6.5-3.2,8.5-6.5c-1.4-0.6-2.6-1.2-2.6-2.8C77.3,19.6,79.3,18.6,79.7,15.4z M54,13.9c-1.4,0-2.7,0-4.1,0c-0.7,0-1.3,0.1-2,0.2
	c0-0.1-0.1-0.2-0.1-0.3c2.2-0.7,4.4-1.4,6.6-2.1c0.2-0.1,0.8,0.2,0.9,0.5C55.5,12.8,54.5,13.9,54,13.9z"/>
<rect x="313.8" y="-199.4" class="st1" width="423.3" height="302.2"/>
</svg>
