<?xml version="1.0" encoding="utf-8"?>
<!-- Generator: Adobe Illustrator 28.0.0, SVG Export Plug-In . SVG Version: 6.00 Build 0)  -->
<svg version="1.1" id="Layer_1" xmlns="http://www.w3.org/2000/svg" xmlns:xlink="http://www.w3.org/1999/xlink" x="0px" y="0px"
	 viewBox="0 0 85 85" style="enable-background:new 0 0 85 85;" xml:space="preserve">
<style type="text/css">
	.st0{fill:#FFFFFF;}
	.st1{fill:url(#SVGID_1_);}
	.st2{fill:url(#SVGID_00000121239267810607584410000016256493982806356401_);}
	.st3{fill:url(#SVGID_00000156582677120716393580000010371566026384055448_);}
	.st4{fill:url(#SVGID_00000142880227950724843820000013169783261469702564_);}
</style>
<rect x="313.8" y="-199.4" class="st0" width="423.3" height="302.2"/>
<linearGradient id="SVGID_1_" gradientUnits="userSpaceOnUse" x1="21.2237" y1="47.095" x2="21.31" y2="47.095">
	<stop  offset="0" style="stop-color:#E4B8BF"/>
	<stop  offset="1" style="stop-color:#CEC4EF"/>
</linearGradient>
<path class="st1" d="M21.3,49.8v-5.5C21.2,46.2,21.2,48,21.3,49.8z"/>
<linearGradient id="SVGID_00000179630178729453742150000007885427834858664368_" gradientUnits="userSpaceOnUse" x1="0.74" y1="42.5" x2="84.26" y2="42.5">
	<stop  offset="0" style="stop-color:#E4B8BF"/>
	<stop  offset="1" style="stop-color:#CEC4EF"/>
</linearGradient>
<path style="fill:url(#SVGID_00000179630178729453742150000007885427834858664368_);" d="M84.3,15.4c-0.8-0.2-1.6-0.6-2.5-0.8
	c-4.8-1-9.7-1.1-14.6-1c-2.2,0-2.2,0.1-2.9-2c-0.5-1.7-1.5-2.9-3.5-2.9c-2.4,0-4.7-0.1-7.1-0.1h-2.2c0.5-3,1.8-5.7,1.1-8.7
	c-6,1.2-14.4,5.8-16.6,9c0.5-0.2,1-0.3,1.5-0.5c0.5-0.1,1.1-0.3,1.7-0.4c0.5-0.1,1-0.2,1.4-0.3C32.8,12,28,18.5,24.6,26.7
	c2.9-2.5,4.2-3.2,6-3.1c-3.7,3.7-6.2,7.8-7.7,12.3c0,0,0,0,0,0c-0.9,2.7-1.4,5.5-1.6,8.4v26.9c0,2-0.5,4-1.4,5.7
	c-1.6,3.3-4.6,5.9-8.4,6.8C8.1,84.5,4.5,85,0.7,85h20.6v0h47.4c-3.7,0-7.4-0.4-10.8-1.3c-5.8-1.4-9.7-6.7-9.7-12.6V49.8
	c-0.3-7.3,2.7-12.5,9-16.1c-5.3,0.7-9.7,3-13,7.3c0.7-2,2-3.7,3.5-5.1c4.2-3.9,9.2-6,14.7-7c3.5-0.7,7-0.8,10.5-1.4
	c4-0.6,6.5-3.2,8.5-6.5c-1.4-0.6-2.6-1.2-2.6-2.8C81.8,19.6,83.9,18.6,84.3,15.4z M58.5,13.9c-1.4,0-2.7,0-4.1,0
	c-0.7,0-1.3,0.1-2,0.2c0-0.1-0.1-0.2-0.1-0.3c2.2-0.7,4.4-1.4,6.6-2.1c0.2-0.1,0.8,0.2,0.9,0.5C60.1,12.8,59.1,13.9,58.5,13.9z"/>
<linearGradient id="SVGID_00000058567867616472113750000009103509034541706629_" gradientUnits="userSpaceOnUse" x1="0.74" y1="17.235" x2="45.92" y2="17.235">
	<stop  offset="0" style="stop-color:#E4B8BF"/>
	<stop  offset="1" style="stop-color:#CEC4EF"/>
</linearGradient>
<path style="fill:url(#SVGID_00000058567867616472113750000009103509034541706629_);" d="M45.9,0c-5.1,2.1-10,5.3-11.7,7.9l-3,4.4
	c-3.5,3.6-6.3,8-8.6,13.5l2.1,1.5c-1.4,2.1-2.6,4.4-3.5,6.8c0,0.1-0.1,0.2-0.1,0.3V12.3C21,10.8,20.6,9.4,20,8.1
	c-1.6-3.3-4.6-5.9-8.4-6.8C8.1,0.5,4.5,0,0.7,0H45.9z"/>
<linearGradient id="SVGID_00000051374772867325422950000011677794451864234175_" gradientUnits="userSpaceOnUse" x1="21.2237" y1="47.095" x2="21.31" y2="47.095">
	<stop  offset="0" style="stop-color:#E4B8BF"/>
	<stop  offset="1" style="stop-color:#CEC4EF"/>
</linearGradient>
<path style="fill:url(#SVGID_00000051374772867325422950000011677794451864234175_);" d="M21.3,44.4v5.5
	C21.2,48,21.2,46.2,21.3,44.4z"/>
</svg>
